<svg width="29" height="24" viewBox="0 0 29 24" fill="none" xmlns="http://www.w3.org/2000/svg">
<path d="M26.9664 1.756C25.8742 0.642084 24.4455 0.0161826 22.9583 0H6.04167C4.44738 0.0284991 2.92561 0.740028 1.79813 1.98415C0.67065 3.22826 0.0258273 4.90745 0 6.66667L0 17.3333C0.00191866 19.1008 0.639066 20.7953 1.77168 22.045C2.9043 23.2948 4.43991 23.9979 6.04167 24H22.9583C24.5601 23.9979 26.0957 23.2948 27.2283 22.045C28.3609 20.7953 28.9981 19.1008 29 17.3333V6.66667C28.9892 5.73708 28.8028 4.82019 28.4526 3.97462C28.1025 3.12906 27.5963 2.37341 26.9664 1.756V1.756ZM22.9583 2.66667C23.2803 2.67174 23.6002 2.72466 23.9093 2.824L16.8381 9.40933C16.1848 10.0202 15.3563 10.3555 14.5 10.3555C13.6437 10.3555 12.8152 10.0202 12.1619 9.40933L5.09071 2.824C5.39985 2.72466 5.71971 2.67174 6.04167 2.66667H22.9583ZM26.5833 17.3333C26.5833 18.3942 26.2014 19.4116 25.5216 20.1618C24.8418 20.9119 23.9197 21.3333 22.9583 21.3333H6.04167C5.08026 21.3333 4.15822 20.9119 3.4784 20.1618C2.79859 19.4116 2.41667 18.3942 2.41667 17.3333V6.66667C2.41611 5.86214 2.6369 5.07639 3.04983 4.41333L10.6031 11.4467C11.6915 12.4659 13.0725 13.0254 14.5 13.0254C15.9275 13.0254 17.3085 12.4659 18.3969 11.4467L25.9502 4.41333C26.3631 5.07639 26.5839 5.86214 26.5833 6.66667V17.3333Z" fill="#333333"/>
</svg>
