<svg width="26" height="26" viewBox="0 0 26 26" fill="none" xmlns="http://www.w3.org/2000/svg">
<path d="M19.942 4.498C19.6335 4.498 19.3318 4.58949 19.0753 4.76091C18.8188 4.93232 18.6188 5.17596 18.5007 5.46101C18.3827 5.74607 18.3518 6.05973 18.412 6.36234C18.4722 6.66495 18.6207 6.94292 18.8389 7.16109C19.0571 7.37926 19.335 7.52783 19.6377 7.58802C19.9403 7.64822 20.2539 7.61732 20.539 7.49925C20.824 7.38118 21.0677 7.18123 21.2391 6.92469C21.4105 6.66815 21.502 6.36654 21.502 6.058C21.502 5.64426 21.3376 5.24747 21.0451 4.95491C20.7525 4.66236 20.3557 4.498 19.942 4.498V4.498ZM25.922 7.644C25.8967 6.56539 25.6947 5.49822 25.324 4.485C24.9934 3.61807 24.479 2.83306 23.816 2.184C23.1723 1.51765 22.3854 1.00643 21.515 0.689C20.5045 0.307009 19.4361 0.100373 18.356 0.0779999C16.978 -7.26432e-08 16.536 0 13 0C9.464 0 9.022 -7.26432e-08 7.644 0.0779999C6.5639 0.100373 5.49555 0.307009 4.485 0.689C3.61618 1.00964 2.83001 1.52043 2.184 2.184C1.51765 2.82773 1.00643 3.61457 0.689 4.485C0.307009 5.49555 0.100373 6.5639 0.0779999 7.644C-7.26432e-08 9.022 0 9.464 0 13C0 16.536 -7.26432e-08 16.978 0.0779999 18.356C0.100373 19.4361 0.307009 20.5045 0.689 21.515C1.00643 22.3854 1.51765 23.1723 2.184 23.816C2.83001 24.4796 3.61618 24.9904 4.485 25.311C5.49555 25.693 6.5639 25.8996 7.644 25.922C9.022 26 9.464 26 13 26C16.536 26 16.978 26 18.356 25.922C19.4361 25.8996 20.5045 25.693 21.515 25.311C22.3854 24.9936 23.1723 24.4823 23.816 23.816C24.4819 23.1694 24.9968 22.3837 25.324 21.515C25.6947 20.5018 25.8967 19.4346 25.922 18.356C25.922 16.978 26 16.536 26 13C26 9.464 26 9.022 25.922 7.644V7.644ZM23.582 18.2C23.5725 19.0252 23.4231 19.8428 23.14 20.618C22.9324 21.1838 22.599 21.695 22.165 22.113C21.7433 22.5427 21.2332 22.8754 20.67 23.088C19.8948 23.3711 19.0772 23.5205 18.252 23.53C16.952 23.595 16.471 23.608 13.052 23.608C9.633 23.608 9.152 23.608 7.852 23.53C6.99516 23.546 6.14197 23.4141 5.33 23.14C4.79152 22.9165 4.30476 22.5846 3.9 22.165C3.46851 21.7474 3.1393 21.2357 2.938 20.67C2.62061 19.8837 2.44458 19.0475 2.418 18.2C2.418 16.9 2.34 16.419 2.34 13C2.34 9.581 2.34 9.1 2.418 7.8C2.42383 6.95637 2.57784 6.12033 2.873 5.33C3.10186 4.78128 3.45314 4.29216 3.9 3.9C4.29496 3.45302 4.78307 3.09802 5.33 2.86C6.12242 2.57406 6.9576 2.4246 7.8 2.418C9.1 2.418 9.581 2.34 13 2.34C16.419 2.34 16.9 2.34 18.2 2.418C19.0252 2.42746 19.8428 2.57692 20.618 2.86C21.2088 3.07925 21.739 3.4357 22.165 3.9C22.591 4.29933 22.9239 4.78755 23.14 5.33C23.4289 6.12161 23.5785 6.95731 23.582 7.8C23.647 9.1 23.66 9.581 23.66 13C23.66 16.419 23.647 16.9 23.582 18.2ZM13 6.331C11.6816 6.33357 10.3935 6.72688 9.29845 7.46124C8.20345 8.1956 7.35069 9.23805 6.84792 10.4569C6.34516 11.6757 6.21494 13.0162 6.47373 14.309C6.73252 15.6018 7.36871 16.7889 8.3019 17.7203C9.23509 18.6516 10.4234 19.2855 11.7167 19.5418C13.01 19.7981 14.3503 19.6652 15.5681 19.1601C16.786 18.655 17.8267 17.8002 18.559 16.7037C19.2912 15.6073 19.682 14.3184 19.682 13C19.6837 12.1226 19.512 11.2536 19.1766 10.4428C18.8413 9.6321 18.3489 8.89565 17.7279 8.27587C17.1069 7.65608 16.3695 7.16518 15.5581 6.83141C14.7467 6.49763 13.8774 6.32757 13 6.331V6.331ZM13 17.329C12.1438 17.329 11.3068 17.0751 10.5949 16.5994C9.88304 16.1238 9.32818 15.4477 9.00052 14.6566C8.67287 13.8656 8.58714 12.9952 8.75418 12.1555C8.92122 11.3157 9.33351 10.5444 9.93893 9.93893C10.5444 9.33351 11.3157 8.92122 12.1555 8.75418C12.9952 8.58714 13.8656 8.67287 14.6566 9.00052C15.4477 9.32818 16.1238 9.88304 16.5994 10.5949C17.0751 11.3068 17.329 12.1438 17.329 13C17.329 13.5685 17.217 14.1314 16.9995 14.6566C16.7819 15.1819 16.463 15.6591 16.0611 16.0611C15.6591 16.463 15.1819 16.7819 14.6566 16.9995C14.1314 17.217 13.5685 17.329 13 17.329V17.329Z" fill="#333333"/>
</svg>
