<svg width="32" height="24" viewBox="0 0 32 24" fill="none" xmlns="http://www.w3.org/2000/svg">
<path d="M32 2.87536C30.7973 3.35605 29.5255 3.67382 28.224 3.81878C29.5971 3.06304 30.626 1.87413 31.12 0.472594C29.8297 1.18025 28.4172 1.67884 26.944 1.94668C25.9593 0.962835 24.6479 0.307933 23.2157 0.084689C21.7834 -0.138554 20.3113 0.0824882 19.0301 0.71315C17.7489 1.34381 16.7311 2.34842 16.1364 3.56942C15.5417 4.79041 15.4037 6.15874 15.744 7.45978C13.1351 7.33821 10.5831 6.71235 8.25385 5.62286C5.92459 4.53337 3.87015 3.00463 2.224 1.13593C1.64662 2.06486 1.34323 3.11685 1.344 4.1873C1.34195 5.1814 1.60675 6.16054 2.11481 7.03755C2.62287 7.91456 3.35843 8.66221 4.256 9.21395C3.21276 9.1878 2.19182 8.92989 1.28 8.46216V8.53587C1.28782 9.92872 1.81759 11.2763 2.7797 12.3508C3.74182 13.4252 5.07721 14.1605 6.56 14.4322C5.98921 14.5923 5.3966 14.6766 4.8 14.6828C4.38702 14.6784 3.97508 14.6439 3.568 14.5796C3.99026 15.7778 4.8074 16.8249 5.90572 17.5752C7.00404 18.3256 8.32892 18.7418 9.696 18.7661C7.38752 20.4395 4.53741 21.3529 1.6 21.3605C1.06518 21.3621 0.530777 21.3325 0 21.272C2.99909 23.056 6.4941 24.0031 10.064 23.9991C12.5275 24.0226 14.9714 23.5937 17.253 22.7374C19.5346 21.881 21.608 20.6144 23.3523 19.0115C25.0966 17.4086 26.4767 15.5015 27.4121 13.4017C28.3474 11.3019 28.8193 9.0514 28.8 6.7817C28.8 6.53111 28.8 6.26577 28.8 6.00043C30.0555 5.13781 31.1384 4.08032 32 2.87536V2.87536Z" fill="#333333"/>
</svg>
